<svg xmlns="http://www.w3.org/2000/svg" width="1000" height="620" viewBox="0 0 1000 620" role="img" aria-labelledby="title description">
<title id="title">Sechang's technology orbit</title>
<desc id="description">Sechang is fixed at the center. The solid inner orbit shows project implementation and integration experience: Python, FastAPI, Pydantic, pytest, Supabase, PostgreSQL, TypeScript, React, Docker, Git, Qwen3-TTS, and Ollama. The dashed outer orbit shows practice and exploration: PyTorch, Streamlit, LangGraph, n8n, and Langfuse. Both orbits turn slowly clockwise while every logo and label stays upright. Motion stops when reduced motion is preferred. The README below includes the full technology list.</desc>
<!-- Self-contained: embedded vector paths, no remote images, scripts, or foreignObject.
     Brand sources and licenses: see assets/TECH-ORBIT-CREDITS.md.
     Simple Icons paths: CC0-1.0. Langfuse icon: MIT, Copyright (c) 2023-2026 ClickHouse, Inc.
     Permission is hereby granted, free of charge, to any person obtaining a copy of this software and associated documentation files (the "Software"), to deal in the Software without restriction, including without limitation the rights to use, copy, modify, merge, publish, distribute, sublicense, and/or sell copies of the Software, and to permit persons to whom the Software is furnished to do so, subject to the following conditions:
     The above copyright notice and this permission notice shall be included in all copies or substantial portions of the Software.
     THE SOFTWARE IS PROVIDED "AS IS", WITHOUT WARRANTY OF ANY KIND, EXPRESS OR IMPLIED, INCLUDING BUT NOT LIMITED TO THE WARRANTIES OF MERCHANTABILITY, FITNESS FOR A PARTICULAR PURPOSE AND NONINFRINGEMENT. IN NO EVENT SHALL THE AUTHORS OR COPYRIGHT HOLDERS BE LIABLE FOR ANY CLAIM, DAMAGES OR OTHER LIABILITY, WHETHER IN AN ACTION OF CONTRACT, TORT OR OTHERWISE, ARISING FROM, OUT OF OR IN CONNECTION WITH THE SOFTWARE OR THE USE OR OTHER DEALINGS IN THE SOFTWARE.
-->
<defs>
 <radialGradient id="ambient" cx="50%" cy="51%" r="64%"><stop offset="0" stop-color="#142335"/><stop offset=".65" stop-color="#0C1521"/><stop offset="1" stop-color="#0B111B"/></radialGradient>
 <radialGradient id="centerLight" cx="35%" cy="20%" r="100%"><stop stop-color="#20384C"/><stop offset="1" stop-color="#101D2C"/></radialGradient>
 <linearGradient id="rim" x1="0" y1="0" x2="1" y2="1"><stop stop-color="#73D8E5" stop-opacity=".8"/><stop offset=".5" stop-color="#42637D" stop-opacity=".5"/><stop offset="1" stop-color="#968BCB" stop-opacity=".7"/></linearGradient>
 <filter id="chipShadow" x="-20%" y="-35%" width="140%" height="170%"><feDropShadow dx="0" dy="4" stdDeviation="5" flood-color="#000711" flood-opacity=".38"/></filter>
 <pattern id="dots" width="28" height="28" patternUnits="userSpaceOnUse"><circle cx="14" cy="14" r=".6" fill="#91ABC6" opacity=".09"/></pattern>
</defs>
<style>
 text {font-family:-apple-system,BlinkMacSystemFont,'Segoe UI',Arial,sans-serif}
 .orbit,.counter {transform-origin:0 0;animation-timing-function:linear;animation-iteration-count:infinite}
 .project-orbit {animation-name:clockwise;animation-duration:156s}
 .project-counter {animation-name:upright;animation-duration:156s}
 .learning-orbit {animation-name:clockwise;animation-duration:216s}
 .learning-counter {animation-name:upright;animation-duration:216s}
 .name {font-size:12px;font-weight:600;letter-spacing:-.1px;fill:#E3EBF5}
 @keyframes clockwise {from {transform:rotate(0deg)} to {transform:rotate(360deg)}}
 @keyframes upright {from {transform:rotate(0deg)} to {transform:rotate(-360deg)}}
 @media (prefers-reduced-motion:reduce) {.orbit,.counter {animation:none!important}}
</style>
<rect x=".5" y=".5" width="999" height="619" rx="24" fill="url(#ambient)" stroke="#243244"/>
<rect x="18" y="18" width="964" height="584" rx="16" fill="url(#dots)"/>
<!-- Main orbit only; translated to fit the compact canvas. -->
<g transform="translate(0 -109)">
<!-- Orbit band geometry. -->
<ellipse cx="500" cy="419" rx="390" ry="258" fill="none" stroke="#A090D7" stroke-width="56" opacity=".025"/>
<ellipse cx="500" cy="419" rx="390" ry="258" fill="none" stroke="#786C9F" stroke-width="1.2" stroke-dasharray="4 8" opacity=".58"/>
<ellipse cx="500" cy="419" rx="255" ry="167" fill="none" stroke="#6DC7DE" stroke-width="50" opacity=".035"/>
<ellipse cx="500" cy="419" rx="255" ry="167" fill="none" stroke="#53899E" stroke-width="1.3" opacity=".65"/>
<!-- Radial construction lines stay subtle and stationary. -->
<path d="M500 178V217 M500 621V660 M129 419H168 M832 419H871" stroke="#53657F" stroke-opacity=".25"/>

<g transform="translate(500 419) scale(1 0.6549019608)"><g class="orbit project-orbit">
<g transform="translate(0.000000 -255.000000)"><g class="counter project-counter"><g class="tech-chip project-chip" id="tech-python" data-angle="-90.0" data-orbit="project" transform="scale(1 1.5269461078)">
 <title>Python · project implementation and integration</title>
 <rect class="chip-background" x="-55" y="-22" width="110" height="44" rx="14" fill="#101F2E" stroke="#355368"/>
 <g transform="translate(-43 -12) scale(1.0000000000)" fill="#79B8ED" aria-hidden="true"><path d="M14.25.18l.9.2.73.26.59.3.45.32.34.34.25.34.16.33.1.3.04.26.02.2-.01.13V8.5l-.05.63-.13.55-.21.46-.26.38-.3.31-.33.25-.35.19-.35.14-.33.1-.3.07-.26.04-.21.02H8.77l-.69.05-.59.14-.5.22-.41.27-.33.32-.27.35-.2.36-.15.37-.1.35-.07.32-.04.27-.02.21v3.06H3.17l-.21-.03-.28-.07-.32-.12-.35-.18-.36-.26-.36-.36-.35-.46-.32-.59-.28-.73-.21-.88-.14-1.05-.05-1.23.06-1.22.16-1.04.24-.87.32-.71.36-.57.4-.44.42-.33.42-.24.4-.16.36-.1.32-.05.24-.01h.16l.06.01h8.16v-.83H6.18l-.01-2.75-.02-.37.05-.34.11-.31.17-.28.25-.26.31-.23.38-.2.44-.18.51-.15.58-.12.64-.1.71-.06.77-.04.84-.02 1.27.05zm-6.3 1.98l-.23.33-.08.41.08.41.23.34.33.22.41.09.41-.09.33-.22.23-.34.08-.41-.08-.41-.23-.33-.33-.22-.41-.09-.41.09zm13.09 3.95l.28.06.32.12.35.18.36.27.36.35.35.47.32.59.28.73.21.88.14 1.04.05 1.23-.06 1.23-.16 1.04-.24.86-.32.71-.36.57-.4.45-.42.33-.42.24-.4.16-.36.09-.32.05-.24.02-.16-.01h-8.22v.82h5.84l.01 2.76.02.36-.05.34-.11.31-.17.29-.25.25-.31.24-.38.2-.44.17-.51.15-.58.13-.64.09-.71.07-.77.04-.84.01-1.27-.04-1.07-.14-.9-.2-.73-.25-.59-.3-.45-.33-.34-.34-.25-.34-.16-.33-.1-.3-.04-.25-.02-.2.01-.13v-5.34l.05-.64.13-.54.21-.46.26-.38.3-.32.33-.24.35-.2.35-.14.33-.1.3-.06.26-.04.21-.02.13-.01h5.84l.69-.05.59-.14.5-.21.41-.28.33-.32.27-.35.2-.36.15-.36.1-.35.07-.32.04-.28.02-.21V6.07h2.09l.14.01zm-6.47 14.25l-.23.33-.08.41.08.41.23.33.33.23.41.08.41-.08.33-.23.23-.33.08-.41-.08-.41-.23-.33-.33-.23-.41-.08-.41.08z" /></g>
 <text class="name" x="-11" y="4.2">Python</text>
</g></g></g>
<g transform="translate(127.500000 -220.836478)"><g class="counter project-counter"><g class="tech-chip project-chip" id="tech-fastapi" data-angle="-60.0" data-orbit="project" transform="scale(1 1.5269461078)">
 <title>FastAPI · project implementation and integration</title>
 <rect class="chip-background" x="-55" y="-22" width="110" height="44" rx="14" fill="#101F2E" stroke="#355368"/>
 <g transform="translate(-43 -12) scale(1.0000000000)" fill="#4FC7B5" aria-hidden="true"><path d="M12 .0387C5.3729.0384.0003 5.3931 0 11.9988c-.001 6.6066 5.372 11.9628 12 11.9625 6.628.0003 12.001-5.3559 12-11.9625-.0003-6.6057-5.3729-11.9604-12-11.96m-.829 5.4153h7.55l-7.5805 5.3284h5.1828L5.279 18.5436q2.9466-6.5444 5.892-13.0896" /></g>
 <text class="name" x="-11" y="4.2">FastAPI</text>
</g></g></g>
<g transform="translate(220.836478 -127.500000)"><g class="counter project-counter"><g class="tech-chip project-chip" id="tech-pydantic" data-angle="-30.0" data-orbit="project" transform="scale(1 1.5269461078)">
 <title>Pydantic · project implementation and integration</title>
 <rect class="chip-background" x="-55" y="-22" width="110" height="44" rx="14" fill="#101F2E" stroke="#355368"/>
 <g transform="translate(-43 -12) scale(1.0000000000)" fill="#EB7FA6" aria-hidden="true"><path d="m23.826 17.316-4.23-5.866-6.847-9.496c-.348-.48-1.151-.48-1.497 0l-6.845 9.494-4.233 5.868a.925.925 0 0 0 .46 1.417l11.078 3.626h.002a.92.92 0 0 0 .572 0h.002l11.077-3.626c.28-.092.5-.31.59-.592a.916.916 0 0 0-.13-.825h.002ZM12.001 4.07l4.44 6.158-4.152-1.36c-.032-.01-.066-.008-.098-.016a.8.8 0 0 0-.096-.016c-.032-.004-.062-.016-.094-.016s-.062.012-.094.016a.74.74 0 0 0-.096.016c-.032.006-.066.006-.096.016L7.59 10.221l-.026.008 4.44-6.158h-.002Zm-6.273 8.7 4.834-1.583.516-.168v9.19L2.41 17.372l3.317-4.6Zm7.197 7.437V11.02l5.35 1.752 3.316 4.598-8.666 2.838Z" /></g>
 <text class="name" x="-11" y="4.2">Pydantic</text>
</g></g></g>
<g transform="translate(255.000000 0.000000)"><g class="counter project-counter"><g class="tech-chip project-chip" id="tech-pytest" data-angle="0.0" data-orbit="project" transform="scale(1 1.5269461078)">
 <title>pytest · project implementation and integration</title>
 <rect class="chip-background" x="-55" y="-22" width="110" height="44" rx="14" fill="#101F2E" stroke="#355368"/>
 <g transform="translate(-43 -12) scale(1.0000000000)" fill="#97C4E6" aria-hidden="true"><path d="M2.6152 0v.8867h3.8399V0zm5.0215 0v.8867h3.8418V0zm4.957 0v.8867h3.8418V0zm4.9356 0v.8867h3.8418V0zM2.4473 1.8945a.935.935 0 0 0-.9356.9356c0 .517.4185.9375.9356.9375h19.1054c.5171 0 .9356-.4204.9356-.9375a.935.935 0 0 0-.9356-.9356zm.168 2.8477V24H6.455V4.7422zm5.0214 0V20.543h3.8418V4.7422zm4.957 0V15.291h3.8497V4.7422zm4.9356 0v6.4941h3.8418V4.7422z" /></g>
 <text class="name" x="-11" y="4.2">pytest</text>
</g></g></g>
<g transform="translate(220.836478 127.500000)"><g class="counter project-counter"><g class="tech-chip project-chip" id="tech-supabase" data-angle="30.0" data-orbit="project" transform="scale(1 1.5269461078)">
 <title>Supabase · project implementation and integration</title>
 <rect class="chip-background" x="-55" y="-22" width="110" height="44" rx="14" fill="#101F2E" stroke="#355368"/>
 <g transform="translate(-43 -12) scale(1.0000000000)" fill="#64DAA1" aria-hidden="true"><path d="M11.9 1.036c-.015-.986-1.26-1.41-1.874-.637L.764 12.05C-.33 13.427.65 15.455 2.409 15.455h9.579l.113 7.51c.014.985 1.259 1.408 1.873.636l9.262-11.653c1.093-1.375.113-3.403-1.645-3.403h-9.642z" /></g>
 <text class="name" x="-11" y="4.2">Supabase</text>
</g></g></g>
<g transform="translate(127.500000 220.836478)"><g class="counter project-counter"><g class="tech-chip project-chip" id="tech-postgresql" data-angle="60.0" data-orbit="project" transform="scale(1 1.5269461078)">
 <title>PostgreSQL · project implementation and integration</title>
 <rect class="chip-background" x="-55" y="-22" width="110" height="44" rx="14" fill="#101F2E" stroke="#355368"/>
 <g transform="translate(-43 -12) scale(1.0000000000)" fill="#85B8E3" aria-hidden="true"><path d="M23.5594 14.7228a.5269.5269 0 0 0-.0563-.1191c-.139-.2632-.4768-.3418-1.0074-.2321-1.6533.3411-2.2935.1312-2.5256-.0191 1.342-2.0482 2.445-4.522 3.0411-6.8297.2714-1.0507.7982-3.5237.1222-4.7316a1.5641 1.5641 0 0 0-.1509-.235C21.6931.9086 19.8007.0248 17.5099.0005c-1.4947-.0158-2.7705.3461-3.1161.4794a9.449 9.449 0 0 0-.5159-.0816 8.044 8.044 0 0 0-1.3114-.1278c-1.1822-.0184-2.2038.2642-3.0498.8406-.8573-.3211-4.7888-1.645-7.2219.0788C.9359 2.1526.3086 3.8733.4302 6.3043c.0409.818.5069 3.334 1.2423 5.7436.4598 1.5065.9387 2.7019 1.4334 3.582.553.9942 1.1259 1.5933 1.7143 1.7895.4474.1491 1.1327.1441 1.8581-.7279.8012-.9635 1.5903-1.8258 1.9446-2.2069.4351.2355.9064.3625 1.39.3772a.0569.0569 0 0 0 .0004.0041 11.0312 11.0312 0 0 0-.2472.3054c-.3389.4302-.4094.5197-1.5002.7443-.3102.064-1.1344.2339-1.1464.8115-.0025.1224.0329.2309.0919.3268.2269.4231.9216.6097 1.015.6331 1.3345.3335 2.5044.092 3.3714-.6787-.017 2.231.0775 4.4174.3454 5.0874.2212.5529.7618 1.9045 2.4692 1.9043.2505 0 .5263-.0291.8296-.0941 1.7819-.3821 2.5557-1.1696 2.855-2.9059.1503-.8707.4016-2.8753.5388-4.1012.0169-.0703.0357-.1207.057-.1362.0007-.0005.0697-.0471.4272.0307a.3673.3673 0 0 0 .0443.0068l.2539.0223.0149.001c.8468.0384 1.9114-.1426 2.5312-.4308.6438-.2988 1.8057-1.0323 1.5951-1.6698zM2.371 11.8765c-.7435-2.4358-1.1779-4.8851-1.2123-5.5719-.1086-2.1714.4171-3.6829 1.5623-4.4927 1.8367-1.2986 4.8398-.5408 6.108-.13-.0032.0032-.0066.0061-.0098.0094-2.0238 2.044-1.9758 5.536-1.9708 5.7495-.0002.0823.0066.1989.0162.3593.0348.5873.0996 1.6804-.0735 2.9184-.1609 1.1504.1937 2.2764.9728 3.0892.0806.0841.1648.1631.2518.2374-.3468.3714-1.1004 1.1926-1.9025 2.1576-.5677.6825-.9597.5517-1.0886.5087-.3919-.1307-.813-.5871-1.2381-1.3223-.4796-.839-.9635-2.0317-1.4155-3.5126zm6.0072 5.0871c-.1711-.0428-.3271-.1132-.4322-.1772.0889-.0394.2374-.0902.4833-.1409 1.2833-.2641 1.4815-.4506 1.9143-1.0002.0992-.126.2116-.2687.3673-.4426a.3549.3549 0 0 0 .0737-.1298c.1708-.1513.2724-.1099.4369-.0417.156.0646.3078.26.3695.4752.0291.1016.0619.2945-.0452.4444-.9043 1.2658-2.2216 1.2494-3.1676 1.0128zm2.094-3.988-.0525.141c-.133.3566-.2567.6881-.3334 1.003-.6674-.0021-1.3168-.2872-1.8105-.8024-.6279-.6551-.9131-1.5664-.7825-2.5004.1828-1.3079.1153-2.4468.079-3.0586-.005-.0857-.0095-.1607-.0122-.2199.2957-.2621 1.6659-.9962 2.6429-.7724.4459.1022.7176.4057.8305.928.5846 2.7038.0774 3.8307-.3302 4.7363-.084.1866-.1633.3629-.2311.5454zm7.3637 4.5725c-.0169.1768-.0358.376-.0618.5959l-.146.4383a.3547.3547 0 0 0-.0182.1077c-.0059.4747-.054.6489-.115.8693-.0634.2292-.1353.4891-.1794 1.0575-.11 1.4143-.8782 2.2267-2.4172 2.5565-1.5155.3251-1.7843-.4968-2.0212-1.2217a6.5824 6.5824 0 0 0-.0769-.2266c-.2154-.5858-.1911-1.4119-.1574-2.5551.0165-.5612-.0249-1.9013-.3302-2.6462.0044-.2932.0106-.5909.019-.8918a.3529.3529 0 0 0-.0153-.1126 1.4927 1.4927 0 0 0-.0439-.208c-.1226-.4283-.4213-.7866-.7797-.9351-.1424-.059-.4038-.1672-.7178-.0869.067-.276.1831-.5875.309-.9249l.0529-.142c.0595-.16.134-.3257.213-.5012.4265-.9476 1.0106-2.2453.3766-5.1772-.2374-1.0981-1.0304-1.6343-2.2324-1.5098-.7207.0746-1.3799.3654-1.7088.5321a5.6716 5.6716 0 0 0-.1958.1041c.0918-1.1064.4386-3.1741 1.7357-4.4823a4.0306 4.0306 0 0 1 .3033-.276.3532.3532 0 0 0 .1447-.0644c.7524-.5706 1.6945-.8506 2.802-.8325.4091.0067.8017.0339 1.1742.081 1.939.3544 3.2439 1.4468 4.0359 2.3827.8143.9623 1.2552 1.9315 1.4312 2.4543-1.3232-.1346-2.2234.1268-2.6797.779-.9926 1.4189.543 4.1729 1.2811 5.4964.1353.2426.2522.4522.2889.5413.2403.5825.5515.9713.7787 1.2552.0696.087.1372.1714.1885.245-.4008.1155-1.1208.3825-1.0552 1.717-.0123.1563-.0423.4469-.0834.8148-.0461.2077-.0702.4603-.0994.7662zm.8905-1.6211c-.0405-.8316.2691-.9185.5967-1.0105a2.8566 2.8566 0 0 0 .135-.0406 1.202 1.202 0 0 0 .1342.103c.5703.3765 1.5823.4213 3.0068.1344-.2016.1769-.5189.3994-.9533.6011-.4098.1903-1.0957.333-1.7473.3636-.7197.0336-1.0859-.0807-1.1721-.151zm.5695-9.2712c-.0059.3508-.0542.6692-.1054 1.0017-.055.3576-.112.7274-.1264 1.1762-.0142.4368.0404.8909.0932 1.3301.1066.887.216 1.8003-.2075 2.7014a3.5272 3.5272 0 0 1-.1876-.3856c-.0527-.1276-.1669-.3326-.3251-.6162-.6156-1.1041-2.0574-3.6896-1.3193-4.7446.3795-.5427 1.3408-.5661 2.1781-.463zm.2284 7.0137a12.3762 12.3762 0 0 0-.0853-.1074l-.0355-.0444c.7262-1.1995.5842-2.3862.4578-3.4385-.0519-.4318-.1009-.8396-.0885-1.2226.0129-.4061.0666-.7543.1185-1.0911.0639-.415.1288-.8443.1109-1.3505.0134-.0531.0188-.1158.0118-.1902-.0457-.4855-.5999-1.938-1.7294-3.253-.6076-.7073-1.4896-1.4972-2.6889-2.0395.5251-.1066 1.2328-.2035 2.0244-.1859 2.0515.0456 3.6746.8135 4.8242 2.2824a.908.908 0 0 1 .0667.1002c.7231 1.3556-.2762 6.2751-2.9867 10.5405zm-8.8166-6.1162c-.025.1794-.3089.4225-.6211.4225a.5821.5821 0 0 1-.0809-.0056c-.1873-.026-.3765-.144-.5059-.3156-.0458-.0605-.1203-.178-.1055-.2844.0055-.0401.0261-.0985.0925-.1488.1182-.0894.3518-.1226.6096-.0867.3163.0441.6426.1938.6113.4186zm7.9305-.4114c.0111.0792-.049.201-.1531.3102-.0683.0717-.212.1961-.4079.2232a.5456.5456 0 0 1-.075.0052c-.2935 0-.5414-.2344-.5607-.3717-.024-.1765.2641-.3106.5611-.352.297-.0414.6111.0088.6356.1851z" /></g>
 <text class="name" x="-11" y="4.2" style="font-size:11.5px">PostgreSQL</text>
</g></g></g>
<g transform="translate(0.000000 255.000000)"><g class="counter project-counter"><g class="tech-chip project-chip" id="tech-typescript" data-angle="90.0" data-orbit="project" transform="scale(1 1.5269461078)">
 <title>TypeScript · project implementation and integration</title>
 <rect class="chip-background" x="-55" y="-22" width="110" height="44" rx="14" fill="#101F2E" stroke="#355368"/>
 <g transform="translate(-43 -12) scale(1.0000000000)" fill="#68AEF1" aria-hidden="true"><path d="M1.125 0C.502 0 0 .502 0 1.125v21.75C0 23.498.502 24 1.125 24h21.75c.623 0 1.125-.502 1.125-1.125V1.125C24 .502 23.498 0 22.875 0zm17.363 9.75c.612 0 1.154.037 1.627.111a6.38 6.38 0 0 1 1.306.34v2.458a3.95 3.95 0 0 0-.643-.361 5.093 5.093 0 0 0-.717-.26 5.453 5.453 0 0 0-1.426-.2c-.3 0-.573.028-.819.086a2.1 2.1 0 0 0-.623.242c-.17.104-.3.229-.393.374a.888.888 0 0 0-.14.49c0 .196.053.373.156.529.104.156.252.304.443.444s.423.276.696.41c.273.135.582.274.926.416.47.197.892.407 1.266.628.374.222.695.473.963.753.268.279.472.598.614.957.142.359.214.776.214 1.253 0 .657-.125 1.21-.373 1.656a3.033 3.033 0 0 1-1.012 1.085 4.38 4.38 0 0 1-1.487.596c-.566.12-1.163.18-1.79.18a9.916 9.916 0 0 1-1.84-.164 5.544 5.544 0 0 1-1.512-.493v-2.63a5.033 5.033 0 0 0 3.237 1.2c.333 0 .624-.03.872-.09.249-.06.456-.144.623-.25.166-.108.29-.234.373-.38a1.023 1.023 0 0 0-.074-1.089 2.12 2.12 0 0 0-.537-.5 5.597 5.597 0 0 0-.807-.444 27.72 27.72 0 0 0-1.007-.436c-.918-.383-1.602-.852-2.053-1.405-.45-.553-.676-1.222-.676-2.005 0-.614.123-1.141.369-1.582.246-.441.58-.804 1.004-1.089a4.494 4.494 0 0 1 1.47-.629 7.536 7.536 0 0 1 1.77-.201zm-15.113.188h9.563v2.166H9.506v9.646H6.789v-9.646H3.375z" /></g>
 <text class="name" x="-11" y="4.2" style="font-size:11.5px">TypeScript</text>
</g></g></g>
<g transform="translate(-127.500000 220.836478)"><g class="counter project-counter"><g class="tech-chip project-chip" id="tech-react" data-angle="120.0" data-orbit="project" transform="scale(1 1.5269461078)">
 <title>React · project implementation and integration</title>
 <rect class="chip-background" x="-55" y="-22" width="110" height="44" rx="14" fill="#101F2E" stroke="#355368"/>
 <g transform="translate(-43 -12) scale(1.0000000000)" fill="#80D8EF" aria-hidden="true"><path d="M14.23 12.004a2.236 2.236 0 0 1-2.235 2.236 2.236 2.236 0 0 1-2.236-2.236 2.236 2.236 0 0 1 2.235-2.236 2.236 2.236 0 0 1 2.236 2.236zm2.648-10.69c-1.346 0-3.107.96-4.888 2.622-1.78-1.653-3.542-2.602-4.887-2.602-.41 0-.783.093-1.106.278-1.375.793-1.683 3.264-.973 6.365C1.98 8.917 0 10.42 0 12.004c0 1.59 1.99 3.097 5.043 4.03-.704 3.113-.39 5.588.988 6.38.32.187.69.275 1.102.275 1.345 0 3.107-.96 4.888-2.624 1.78 1.654 3.542 2.603 4.887 2.603.41 0 .783-.09 1.106-.275 1.374-.792 1.683-3.263.973-6.365C22.02 15.096 24 13.59 24 12.004c0-1.59-1.99-3.097-5.043-4.032.704-3.11.39-5.587-.988-6.38-.318-.184-.688-.277-1.092-.278zm-.005 1.09v.006c.225 0 .406.044.558.127.666.382.955 1.835.73 3.704-.054.46-.142.945-.25 1.44-.96-.236-2.006-.417-3.107-.534-.66-.905-1.345-1.727-2.035-2.447 1.592-1.48 3.087-2.292 4.105-2.295zm-9.77.02c1.012 0 2.514.808 4.11 2.28-.686.72-1.37 1.537-2.02 2.442-1.107.117-2.154.298-3.113.538-.112-.49-.195-.964-.254-1.42-.23-1.868.054-3.32.714-3.707.19-.09.4-.127.563-.132zm4.882 3.05c.455.468.91.992 1.36 1.564-.44-.02-.89-.034-1.345-.034-.46 0-.915.01-1.36.034.44-.572.895-1.096 1.345-1.565zM12 8.1c.74 0 1.477.034 2.202.093.406.582.802 1.203 1.183 1.86.372.64.71 1.29 1.018 1.946-.308.655-.646 1.31-1.013 1.95-.38.66-.773 1.288-1.18 1.87-.728.063-1.466.098-2.21.098-.74 0-1.477-.035-2.202-.093-.406-.582-.802-1.204-1.183-1.86-.372-.64-.71-1.29-1.018-1.946.303-.657.646-1.313 1.013-1.954.38-.66.773-1.286 1.18-1.868.728-.064 1.466-.098 2.21-.098zm-3.635.254c-.24.377-.48.763-.704 1.16-.225.39-.435.782-.635 1.174-.265-.656-.49-1.31-.676-1.947.64-.15 1.315-.283 2.015-.386zm7.26 0c.695.103 1.365.23 2.006.387-.18.632-.405 1.282-.66 1.933-.2-.39-.41-.783-.64-1.174-.225-.392-.465-.774-.705-1.146zm3.063.675c.484.15.944.317 1.375.498 1.732.74 2.852 1.708 2.852 2.476-.005.768-1.125 1.74-2.857 2.475-.42.18-.88.342-1.355.493-.28-.958-.646-1.956-1.1-2.98.45-1.017.81-2.01 1.085-2.964zm-13.395.004c.278.96.645 1.957 1.1 2.98-.45 1.017-.812 2.01-1.086 2.964-.484-.15-.944-.318-1.37-.5-1.732-.737-2.852-1.706-2.852-2.474 0-.768 1.12-1.742 2.852-2.476.42-.18.88-.342 1.356-.494zm11.678 4.28c.265.657.49 1.312.676 1.948-.64.157-1.316.29-2.016.39.24-.375.48-.762.705-1.158.225-.39.435-.788.636-1.18zm-9.945.02c.2.392.41.783.64 1.175.23.39.465.772.705 1.143-.695-.102-1.365-.23-2.006-.386.18-.63.406-1.282.66-1.933zM17.92 16.32c.112.493.2.968.254 1.423.23 1.868-.054 3.32-.714 3.708-.147.09-.338.128-.563.128-1.012 0-2.514-.807-4.11-2.28.686-.72 1.37-1.536 2.02-2.44 1.107-.118 2.154-.3 3.113-.54zm-11.83.01c.96.234 2.006.415 3.107.532.66.905 1.345 1.727 2.035 2.446-1.595 1.483-3.092 2.295-4.11 2.295-.22-.005-.406-.05-.553-.132-.666-.38-.955-1.834-.73-3.703.054-.46.142-.944.25-1.438zm4.56.64c.44.02.89.034 1.345.034.46 0 .915-.01 1.36-.034-.44.572-.895 1.095-1.345 1.565-.455-.47-.91-.993-1.36-1.565z" /></g>
 <text class="name" x="-11" y="4.2">React</text>
</g></g></g>
<g transform="translate(-220.836478 127.500000)"><g class="counter project-counter"><g class="tech-chip project-chip" id="tech-docker" data-angle="150.0" data-orbit="project" transform="scale(1 1.5269461078)">
 <title>Docker · project implementation and integration</title>
 <rect class="chip-background" x="-55" y="-22" width="110" height="44" rx="14" fill="#101F2E" stroke="#355368"/>
 <g transform="translate(-43 -12) scale(1.0000000000)" fill="#65B1F3" aria-hidden="true"><path d="M13.983 11.078h2.119a.186.186 0 00.186-.185V9.006a.186.186 0 00-.186-.186h-2.119a.185.185 0 00-.185.185v1.888c0 .102.083.185.185.185m-2.954-5.43h2.118a.186.186 0 00.186-.186V3.574a.186.186 0 00-.186-.185h-2.118a.185.185 0 00-.185.185v1.888c0 .102.082.185.185.185m0 2.716h2.118a.187.187 0 00.186-.186V6.29a.186.186 0 00-.186-.185h-2.118a.185.185 0 00-.185.185v1.887c0 .102.082.185.185.186m-2.93 0h2.12a.186.186 0 00.184-.186V6.29a.185.185 0 00-.185-.185H8.1a.185.185 0 00-.185.185v1.887c0 .102.083.185.185.186m-2.964 0h2.119a.186.186 0 00.185-.186V6.29a.185.185 0 00-.185-.185H5.136a.186.186 0 00-.186.185v1.887c0 .102.084.185.186.186m5.893 2.715h2.118a.186.186 0 00.186-.185V9.006a.186.186 0 00-.186-.186h-2.118a.185.185 0 00-.185.185v1.888c0 .102.082.185.185.185m-2.93 0h2.12a.185.185 0 00.184-.185V9.006a.185.185 0 00-.184-.186h-2.12a.185.185 0 00-.184.185v1.888c0 .102.083.185.185.185m-2.964 0h2.119a.185.185 0 00.185-.185V9.006a.185.185 0 00-.184-.186h-2.12a.186.186 0 00-.186.186v1.887c0 .102.084.185.186.185m-2.92 0h2.12a.185.185 0 00.184-.185V9.006a.185.185 0 00-.184-.186h-2.12a.185.185 0 00-.184.185v1.888c0 .102.082.185.185.185M23.763 9.89c-.065-.051-.672-.51-1.954-.51-.338.001-.676.03-1.01.087-.248-1.7-1.653-2.53-1.716-2.566l-.344-.199-.226.327c-.284.438-.49.922-.612 1.43-.23.97-.09 1.882.403 2.661-.595.332-1.55.413-1.744.42H.751a.751.751 0 00-.75.748 11.376 11.376 0 00.692 4.062c.545 1.428 1.355 2.48 2.41 3.124 1.18.723 3.1 1.137 5.275 1.137.983.003 1.963-.086 2.93-.266a12.248 12.248 0 003.823-1.389c.98-.567 1.86-1.288 2.61-2.136 1.252-1.418 1.998-2.997 2.553-4.4h.221c1.372 0 2.215-.549 2.68-1.009.309-.293.55-.65.707-1.046l.098-.288Z" /></g>
 <text class="name" x="-11" y="4.2">Docker</text>
</g></g></g>
<g transform="translate(-255.000000 0.000000)"><g class="counter project-counter"><g class="tech-chip project-chip" id="tech-git" data-angle="180.0" data-orbit="project" transform="scale(1 1.5269461078)">
 <title>Git · project implementation and integration</title>
 <rect class="chip-background" x="-55" y="-22" width="110" height="44" rx="14" fill="#101F2E" stroke="#355368"/>
 <g transform="translate(-43 -12) scale(1.0000000000)" fill="#F2937E" aria-hidden="true"><path d="M13.09 23.549a1.54 1.54 0 0 1-2.18 0L.451 13.089a1.54 1.54 0 0 1 0-2.179l7.191-7.19 2.733 2.733a1.85 1.85 0 0 0 .964 2.326v6.66a1.849 1.849 0 1 0 1.54 0V8.957l2.508 2.508a1.85 1.85 0 1 0 1.09-1.09l-2.634-2.634a1.85 1.85 0 0 0-2.378-2.377L8.73 2.63 10.91.451a1.54 1.54 0 0 1 2.179 0l10.459 10.46a1.54 1.54 0 0 1 0 2.179z" /></g>
 <text class="name" x="-11" y="4.2">Git</text>
</g></g></g>
<g transform="translate(-220.836478 -127.500000)"><g class="counter project-counter"><g class="tech-chip project-chip" id="tech-qwen" data-angle="210.0" data-orbit="project" transform="scale(1 1.5269461078)">
 <title>Qwen3-TTS · project implementation and integration</title>
 <rect class="chip-background" x="-55" y="-22" width="110" height="44" rx="14" fill="#101F2E" stroke="#355368"/>
 <g transform="translate(-43 -12) scale(1.0000000000)" fill="#AE9CF6" aria-hidden="true"><path d="M23.919 14.545 20.817 9.17l1.47-2.544a.56.56 0 0 0 0-.566l-1.633-2.83a.57.57 0 0 0-.49-.283h-6.207L12.487.402a.57.57 0 0 0-.49-.284H8.732a.56.56 0 0 0-.49.284L5.139 5.775h-2.94a.56.56 0 0 0-.49.284L.077 8.887a.56.56 0 0 0 0 .567L3.18 14.83l-1.47 2.545a.56.56 0 0 0 0 .566l1.634 2.83a.57.57 0 0 0 .49.283h6.205l1.47 2.545a.57.57 0 0 0 .49.284h3.266a.57.57 0 0 0 .49-.284l3.104-5.375h2.94a.57.57 0 0 0 .49-.283l1.634-2.828a.55.55 0 0 0-.004-.568M8.733.686l1.634 2.828-1.634 2.828H21.8L20.164 9.17H7.425L5.63 6.06Zm1.306 19.801-6.205-.002 1.634-2.83h3.265L2.201 6.344h3.267q3.182 5.517 6.367 11.032zm10.124-5.66L18.53 12l-6.532 11.315-1.634-2.83c2.129-3.673 4.25-7.351 6.373-11.028h3.592l3.102 5.374z" /></g>
 <text class="name" x="-11" y="4.2">Qwen3-TTS</text>
</g></g></g>
<g transform="translate(-127.500000 -220.836478)"><g class="counter project-counter"><g class="tech-chip project-chip" id="tech-ollama" data-angle="240.0" data-orbit="project" transform="scale(1 1.5269461078)">
 <title>Ollama · project implementation and integration</title>
 <rect class="chip-background" x="-55" y="-22" width="110" height="44" rx="14" fill="#101F2E" stroke="#355368"/>
 <g transform="translate(-43 -12) scale(1.0000000000)" fill="#E0E6F0" aria-hidden="true"><path d="M16.361 10.26a.894.894 0 0 0-.558.47l-.072.148.001.207c0 .193.004.217.059.353.076.193.152.312.291.448.24.238.51.3.872.205a.86.86 0 0 0 .517-.436.752.752 0 0 0 .08-.498c-.064-.453-.33-.782-.724-.897a1.06 1.06 0 0 0-.466 0zm-9.203.005c-.305.096-.533.32-.65.639a1.187 1.187 0 0 0-.06.52c.057.309.31.59.598.667.362.095.632.033.872-.205.14-.136.215-.255.291-.448.055-.136.059-.16.059-.353l.001-.207-.072-.148a.894.894 0 0 0-.565-.472 1.02 1.02 0 0 0-.474.007Zm4.184 2c-.131.071-.223.25-.195.383.031.143.157.288.353.407.105.063.112.072.117.136.004.038-.01.146-.029.243-.02.094-.036.194-.036.222.002.074.07.195.143.253.064.052.076.054.255.059.164.005.198.001.264-.03.169-.082.212-.234.15-.525-.052-.243-.042-.28.087-.355.137-.08.281-.219.324-.314a.365.365 0 0 0-.175-.48.394.394 0 0 0-.181-.033c-.126 0-.207.03-.355.124l-.085.053-.053-.032c-.219-.13-.259-.145-.391-.143a.396.396 0 0 0-.193.032zm.39-2.195c-.373.036-.475.05-.654.086-.291.06-.68.195-.951.328-.94.46-1.589 1.226-1.787 2.114-.04.176-.045.234-.045.53 0 .294.005.357.043.524.264 1.16 1.332 2.017 2.714 2.173.3.033 1.596.033 1.896 0 1.11-.125 2.064-.727 2.493-1.571.114-.226.169-.372.22-.602.039-.167.044-.23.044-.523 0-.297-.005-.355-.045-.531-.288-1.29-1.539-2.304-3.072-2.497a6.873 6.873 0 0 0-.855-.031zm.645.937a3.283 3.283 0 0 1 1.44.514c.223.148.537.458.671.662.166.251.26.508.303.82.02.143.01.251-.043.482-.08.345-.332.705-.672.957a3.115 3.115 0 0 1-.689.348c-.382.122-.632.144-1.525.138-.582-.006-.686-.01-.853-.042-.57-.107-1.022-.334-1.35-.68-.264-.28-.385-.535-.45-.946-.03-.192.025-.509.137-.776.136-.326.488-.73.836-.963.403-.269.934-.46 1.422-.512.187-.02.586-.02.773-.002zm-5.503-11a1.653 1.653 0 0 0-.683.298C5.617.74 5.173 1.666 4.985 2.819c-.07.436-.119 1.04-.119 1.503 0 .544.064 1.24.155 1.721.02.107.031.202.023.208a8.12 8.12 0 0 1-.187.152 5.324 5.324 0 0 0-.949 1.02 5.49 5.49 0 0 0-.94 2.339 6.625 6.625 0 0 0-.023 1.357c.091.78.325 1.438.727 2.04l.13.195-.037.064c-.269.452-.498 1.105-.605 1.732-.084.496-.095.629-.095 1.294 0 .67.009.803.088 1.266.095.555.288 1.143.503 1.534.071.128.243.393.264.407.007.003-.014.067-.046.141a7.405 7.405 0 0 0-.548 1.873c-.062.417-.071.552-.071.991 0 .56.031.832.148 1.279L3.42 24h1.478l-.05-.091c-.297-.552-.325-1.575-.068-2.597.117-.472.25-.819.498-1.296l.148-.29v-.177c0-.165-.003-.184-.057-.293a.915.915 0 0 0-.194-.25 1.74 1.74 0 0 1-.385-.543c-.424-.92-.506-2.286-.208-3.451.124-.486.329-.918.544-1.154a.787.787 0 0 0 .223-.531c0-.195-.07-.355-.224-.522a3.136 3.136 0 0 1-.817-1.729c-.14-.96.114-2.005.69-2.834.563-.814 1.353-1.336 2.237-1.475.199-.033.57-.028.776.01.226.04.367.028.512-.041.179-.085.268-.19.374-.431.093-.215.165-.333.36-.576.234-.29.46-.489.822-.729.413-.27.884-.467 1.352-.561.17-.035.25-.04.569-.04.319 0 .398.005.569.04a4.07 4.07 0 0 1 1.914.997c.117.109.398.457.488.602.034.057.095.177.132.267.105.241.195.346.374.43.14.068.286.082.503.045.343-.058.607-.053.943.016 1.144.23 2.14 1.173 2.581 2.437.385 1.108.276 2.267-.296 3.153-.097.15-.193.27-.333.419-.301.322-.301.722-.001 1.053.493.539.801 1.866.708 3.036-.062.772-.26 1.463-.533 1.854a2.096 2.096 0 0 1-.224.258.916.916 0 0 0-.194.25c-.054.109-.057.128-.057.293v.178l.148.29c.248.476.38.823.498 1.295.253 1.008.231 2.01-.059 2.581a.845.845 0 0 0-.044.098c0 .006.329.009.732.009h.73l.02-.074.036-.134c.019-.076.057-.3.088-.516.029-.217.029-1.016 0-1.258-.11-.875-.295-1.57-.597-2.226-.032-.074-.053-.138-.046-.141.008-.005.057-.074.108-.152.376-.569.607-1.284.724-2.228.031-.26.031-1.378 0-1.628-.083-.645-.182-1.082-.348-1.525a6.083 6.083 0 0 0-.329-.7l-.038-.064.131-.194c.402-.604.636-1.262.727-2.04a6.625 6.625 0 0 0-.024-1.358 5.512 5.512 0 0 0-.939-2.339 5.325 5.325 0 0 0-.95-1.02 8.097 8.097 0 0 1-.186-.152.692.692 0 0 1 .023-.208c.208-1.087.201-2.443-.017-3.503-.19-.924-.535-1.658-.98-2.082-.354-.338-.716-.482-1.15-.455-.996.059-1.8 1.205-2.116 3.01a6.805 6.805 0 0 0-.097.726c0 .036-.007.066-.015.066a.96.96 0 0 1-.149-.078A4.857 4.857 0 0 0 12 3.03c-.832 0-1.687.243-2.456.698a.958.958 0 0 1-.148.078c-.008 0-.015-.03-.015-.066a6.71 6.71 0 0 0-.097-.725C8.997 1.392 8.337.319 7.46.048a2.096 2.096 0 0 0-.585-.041Zm.293 1.402c.248.197.523.759.682 1.388.03.113.06.244.069.292.007.047.026.152.041.233.067.365.098.76.102 1.24l.002.475-.12.175-.118.178h-.278c-.324 0-.646.041-.954.124l-.238.06c-.033.007-.038-.003-.057-.144a8.438 8.438 0 0 1 .016-2.323c.124-.788.413-1.501.696-1.711.067-.05.079-.049.157.013zm9.825-.012c.17.126.358.46.498.888.28.854.36 2.028.212 3.145-.019.14-.024.151-.057.144l-.238-.06a3.693 3.693 0 0 0-.954-.124h-.278l-.119-.178-.119-.175.002-.474c.004-.669.066-1.19.214-1.772.157-.623.434-1.185.68-1.382.078-.062.09-.063.159-.012z" /></g>
 <text class="name" x="-11" y="4.2">Ollama</text>
</g></g></g>
</g></g>
<g transform="translate(500 419) scale(1 0.6615384615)"><g class="orbit learning-orbit">
<g transform="translate(0.000000 -390.000000)"><g class="counter learning-counter"><g class="tech-chip learning-chip" id="tech-pytorch" data-angle="-90.0" data-orbit="learning" transform="scale(1 1.5116279070)">
 <title>PyTorch · practice and exploration</title>
 <rect class="chip-background" x="-55" y="-22" width="110" height="44" rx="14" fill="#181E2D" stroke="#534A6B" stroke-dasharray="3 3"/>
 <g transform="translate(-43 -12) scale(1.0000000000)" fill="#EF957C" aria-hidden="true"><path d="M12.005 0L4.952 7.053a9.865 9.865 0 000 14.022 9.866 9.866 0 0014.022 0c3.984-3.9 3.986-10.205.085-14.023l-1.744 1.743c2.904 2.905 2.904 7.634 0 10.538s-7.634 2.904-10.538 0-2.904-7.634 0-10.538l4.647-4.646.582-.665zm3.568 3.899a1.327 1.327 0 00-1.327 1.327 1.327 1.327 0 001.327 1.328A1.327 1.327 0 0016.9 5.226 1.327 1.327 0 0015.573 3.9z" /></g>
 <text class="name" x="-11" y="4.2">PyTorch</text>
</g></g></g>
<g transform="translate(370.912041 -120.516628)"><g class="counter learning-counter"><g class="tech-chip learning-chip" id="tech-streamlit" data-angle="-18.0" data-orbit="learning" transform="scale(1 1.5116279070)">
 <title>Streamlit · practice and exploration</title>
 <rect class="chip-background" x="-55" y="-22" width="110" height="44" rx="14" fill="#181E2D" stroke="#534A6B" stroke-dasharray="3 3"/>
 <g transform="translate(-43 -12) scale(1.0000000000)" fill="#F2919A" aria-hidden="true"><path d="M16.673 11.32l6.862-3.618c.233-.136.554.12.442.387L20.463 17.1zm-8.556-.229l3.473-5.187c.203-.328.578-.316.793-.028l7.886 11.75zm-3.375 7.25c-.28 0-.835-.284-.993-.716l-3.72-9.46c-.118-.331.139-.614.48-.464l19.474 10.306c-.149.147-.453.337-.72.334z" /></g>
 <text class="name" x="-11" y="4.2">Streamlit</text>
</g></g></g>
<g transform="translate(229.236248 315.516628)"><g class="counter learning-counter"><g class="tech-chip learning-chip" id="tech-langgraph" data-angle="54.0" data-orbit="learning" transform="scale(1 1.5116279070)">
 <title>LangGraph · practice and exploration</title>
 <rect class="chip-background" x="-55" y="-22" width="110" height="44" rx="14" fill="#181E2D" stroke="#534A6B" stroke-dasharray="3 3"/>
 <g transform="translate(-43 -12) scale(1.0000000000)" fill="#92B4A5" aria-hidden="true"><path d="M5 19H10A5 5 0 115 14ZM19 14A5 5 0 1114 19H19ZM10 5A5 5 0 105 10V5ZM19 5V10A5 5 0 1014 5Z" /></g>
 <text class="name" x="-11" y="4.2">LangGraph</text>
</g></g></g>
<g transform="translate(-229.236248 315.516628)"><g class="counter learning-counter"><g class="tech-chip learning-chip" id="tech-n8n" data-angle="126.0" data-orbit="learning" transform="scale(1 1.5116279070)">
 <title>n8n · practice and exploration</title>
 <rect class="chip-background" x="-55" y="-22" width="110" height="44" rx="14" fill="#181E2D" stroke="#534A6B" stroke-dasharray="3 3"/>
 <g transform="translate(-43 -12) scale(1.0000000000)" fill="#F195A9" aria-hidden="true"><path d="M21.4737 5.6842c-1.1772 0-2.1663.8051-2.4468 1.8947h-2.8955c-1.235 0-2.289.893-2.492 2.111l-.1038.623a1.263 1.263 0 0 1-1.246 1.0555H11.289c-.2805-1.0896-1.2696-1.8947-2.4468-1.8947s-2.1663.8051-2.4467 1.8947H4.973c-.2805-1.0896-1.2696-1.8947-2.4468-1.8947C1.1311 9.4737 0 10.6047 0 12s1.131 2.5263 2.5263 2.5263c1.1772 0 2.1663-.8051 2.4468-1.8947h1.4223c.2804 1.0896 1.2696 1.8947 2.4467 1.8947 1.1772 0 2.1663-.8051 2.4468-1.8947h1.0008a1.263 1.263 0 0 1 1.2459 1.0555l.1038.623c.203 1.218 1.257 2.111 2.492 2.111h.3692c.2804 1.0895 1.2696 1.8947 2.4468 1.8947 1.3952 0 2.5263-1.131 2.5263-2.5263s-1.131-2.5263-2.5263-2.5263c-1.1772 0-2.1664.805-2.4468 1.8947h-.3692a1.263 1.263 0 0 1-1.246-1.0555l-.1037-.623A2.52 2.52 0 0 0 13.9607 12a2.52 2.52 0 0 0 .821-1.4794l.1038-.623a1.263 1.263 0 0 1 1.2459-1.0555h2.8955c.2805 1.0896 1.2696 1.8947 2.4468 1.8947 1.3952 0 2.5263-1.131 2.5263-2.5263s-1.131-2.5263-2.5263-2.5263m0 1.2632a1.263 1.263 0 0 1 1.2631 1.2631 1.263 1.263 0 0 1-1.2631 1.2632 1.263 1.263 0 0 1-1.2632-1.2632 1.263 1.263 0 0 1 1.2632-1.2631M2.5263 10.7368A1.263 1.263 0 0 1 3.7895 12a1.263 1.263 0 0 1-1.2632 1.2632A1.263 1.263 0 0 1 1.2632 12a1.263 1.263 0 0 1 1.2631-1.2632m6.3158 0A1.263 1.263 0 0 1 10.1053 12a1.263 1.263 0 0 1-1.2632 1.2632A1.263 1.263 0 0 1 7.579 12a1.263 1.263 0 0 1 1.2632-1.2632m10.1053 3.7895a1.263 1.263 0 0 1 1.2631 1.2632 1.263 1.263 0 0 1-1.2631 1.2631 1.263 1.263 0 0 1-1.2632-1.2631 1.263 1.263 0 0 1 1.2632-1.2632" /></g>
 <text class="name" x="-11" y="4.2">n8n</text>
</g></g></g>
<g transform="translate(-370.912041 -120.516628)"><g class="counter learning-counter"><g class="tech-chip learning-chip" id="tech-langfuse" data-angle="198.0" data-orbit="learning" transform="scale(1 1.5116279070)">
 <title>Langfuse · practice and exploration</title>
 <rect class="chip-background" x="-55" y="-22" width="110" height="44" rx="14" fill="#181E2D" stroke="#534A6B" stroke-dasharray="3 3"/>
 <g transform="translate(-43 -12) scale(0.0468750000)" fill="#A6B6D8" aria-hidden="true"><path d="M254.75 302.25L285.25 326.75C285.25 326.75 308.587 309.418 325.75 306.875C343.75 304.208 362.954 314.244 380.75 326.208C407.629 344.279 430.25 367.208 430.25 367.208L456.75 341.208C456.75 341.208 383.686 262.047 325.75 269.208C287.75 273.905 254.75 302.25 254.75 302.25Z" fill="#FF5D5F" />
<path d="M80.25 151.286L55.25 178.786C55.25 178.786 124.902 243.786 179.75 243.786C204.75 243.786 239.419 224.201 269.25 198.757C286.25 184.257 305.25 167.786 324.25 167.786C337.021 167.786 353.866 174.551 369.75 192.316C369.75 192.316 380.003 186.168 386.25 181.75C391.74 177.868 399.896 171.25 399.896 171.25C377.047 146.864 343.998 129.038 324.25 130.786C292.25 130.79 269.25 150.711 240.75 173.75C212.25 196.789 200.25 206.286 179.75 206.286C145.25 206.286 80.25 151.286 80.25 151.286Z" fill="#4E9CFF" />
<path d="M80.25 360.75L55.25 333.25C55.25 333.25 124.902 268.25 179.75 268.25C204.75 268.25 239.419 287.835 269.25 313.279C286.25 327.779 305.25 344.25 324.25 344.25C337.083 344.25 353.799 337.207 369.75 319.25C369.75 319.25 379.339 325.161 385.25 329.25C391.328 333.455 400.25 340.407 400.25 340.407C377.39 364.987 344.1 383.007 324.25 381.25C292.25 381.246 273.25 364.289 244.75 341.25C216.25 318.211 200.25 305.75 179.75 305.75C145.25 305.75 80.25 360.75 80.25 360.75Z" fill="#4E9CFF" />
<path d="M406.25 213.25C399.745 217.746 389.25 224.25 389.25 224.25C389.25 224.25 395.25 237.25 395.25 254.75C395.25 272.25 389.75 287.25 389.75 287.25C389.75 287.25 399.172 293.135 405.25 297.25C411.564 301.525 421.25 308.75 421.25 308.75C421.25 308.75 432.75 284.75 432.75 254.75C432.75 224.75 421.25 202.25 421.25 202.25C421.25 202.25 412.226 209.12 406.25 213.25Z" fill="#4E9CFF" />
<path d="M256.25 209.25L285.25 185.25C285.25 185.25 308.587 202.04 325.75 204.583C343.75 207.25 362.954 197.214 380.75 185.25C407.629 167.179 430.25 144.25 430.25 144.25L456.75 170.25C456.75 170.25 383.686 249.411 325.75 242.25C287.75 237.553 256.25 209.25 256.25 209.25Z" fill="#FF5D5F" />
<path d="M186.255 130.25C223.755 130.25 255.25 162.25 255.25 162.25C255.25 162.25 246.487 169.155 240.75 173.75C234.775 178.536 225.25 186.25 225.25 186.25C225.25 186.25 208.755 168.75 186.255 168.75C177.028 168.75 165.039 174.292 152.255 185.25C142.391 193.705 132.129 204.216 125.255 217.25C119.31 228.52 116.068 241.802 115.755 255.75C115.361 273.269 121.571 291.634 131.755 306.25C138.58 316.046 146.726 323.418 155.255 329.75C166.323 337.968 177.865 343.75 186.255 343.75C195.217 343.75 203.274 340.635 209.255 337.75C218.755 332.25 226.25 325.75 226.25 325.75L255.75 350.25C255.75 350.25 243.75 362.25 227.255 371.25C216.595 376.507 202.895 381.75 186.255 381.75C169.626 381.75 150.315 372.915 132.255 359.25C120.579 350.416 109.135 339.948 100.255 327.25C85.7005 306.438 78.2004 281.118 78.2502 255.75C78.3008 230.065 86.5823 204.625 101.255 183.75C124.255 153.75 158.273 130.25 186.255 130.25Z" fill="#FF5D5F" />
</g>
 <text class="name" x="-11" y="4.2">Langfuse</text>
</g></g></g>
</g></g>
<!-- Fixed center. No animation is attached to this group. -->
<g id="sechang-center" transform="translate(500 419)">
 <circle r="108" fill="#0D1A28" opacity=".6"/>
 <circle r="98" fill="url(#centerLight)" stroke="url(#rim)" stroke-width="1.4"/>
 <circle r="87" fill="none" stroke="#33536A" stroke-width=".6" opacity=".55"/>
 <text text-anchor="middle" y="12" font-size="36" font-weight="650" fill="#EEF5FA" letter-spacing="-1.1">Sechang</text>
</g>
</g>
</svg>
